<?xml version="1.0" standalone="yes"?>
<svg width="32" height="32">
<path style="fill:#ffffff; stroke:none;" d="M0 0L0 22C8.33307 16.1301 21.0202 -6.10216 31 6L32 6L32 0L0 0z"/>
<path style="fill:#000000; stroke:none;" d="M2 26L0 31L16.9846 25.3225L29 31L27 25L32 25L32 22L27 22C28.3365 19.3841 29.7001 16.8235 30.5571 14C32.355 8.07639 30.3178 -1.27924 22 1.74691C16.1544 3.87364 11.2687 10.7025 7.00077 15C3.81189 18.211 -0.736972 21.4496 2 26z"/>
<path style="fill:#ffcd69; stroke:none;" d="M17 23C24.4203 21.8419 33.4258 12.515 26.9722 4.60802C24.7052 1.83051 20.2714 4.36799 19.2407 7.05864C17.4003 11.8633 19.4391 17.2928 17 23z"/>
<path style="fill:#a48444; stroke:none;" d="M28 5L28 14L29 14L28 5z"/>
<path style="fill:#594725; stroke:none;" d="M25 7L26 8L25 7z"/>
<path style="fill:#171818; stroke:none;" d="M16 9L19 24L19 23L17 22C20.5159 17.5786 20.382 12.9509 18 8L16 9z"/>
<path style="fill:#4e6f9b; stroke:none;" d="M16 10L16 13L17 13L18 10L16 10z"/>
<path style="fill:#ffffff; stroke:none;" d="M31 10L27 22L32 22L31 10z"/>
<path style="fill:#1a2534; stroke:none;" d="M14 11L11 20C14.2333 18.006 17.5665 14.1823 14 11z"/>
<path style="fill:#81b8ff; stroke:none;" d="M17 11C14.5397 17.6 10.5636 20.7242 4 23L4 24C11.9453 23.9772 21.1229 20.8474 17 11z"/>
<path style="fill:#a1c9ff; stroke:none;" d="M13 12L7 20C11.4215 18.7476 13.5301 16.3086 15 12L13 12z"/>
<path style="fill:#6792ce; stroke:none;" d="M18 12L18 17L19 17L18 12z"/>
<path style="fill:#5d7494; stroke:none;" d="M12 13L13 14L12 13z"/>
<path style="fill:#c7a051; stroke:none;" d="M20 13L20 17L21 17L20 13z"/>
<path style="fill:#5d7494; stroke:none;" d="M11 14L12 15L11 14M10 15L11 16L10 15M9 16L10 17L9 16M8 17L9 18L8 17z"/>
<path style="fill:#5b7291; stroke:none;" d="M12 17L13 18L12 17z"/>
<path style="fill:#5d7494; stroke:none;" d="M7 18L8 19L7 18z"/>
<path style="fill:#7e9ec9; stroke:none;" d="M5 21L8 21L7 19L5 21z"/>
<path style="fill:#344a68; stroke:none;" d="M10 19L8 22L10 19z"/>
<path style="fill:#4f709d; stroke:none;" d="M3 24L6 23L3 24z"/>
<path style="fill:#425e84; stroke:none;" d="M14 22L15 23L14 22z"/>
<path style="fill:#50262d; stroke:none;" d="M4 24L8 27L4 24z"/>
<path style="fill:#456289; stroke:none;" d="M5 24L5 25L10 25L5 24z"/>
<path style="fill:#ffffff; stroke:none;" d="M0 25L0 27L2 25L0 25M0 31L0 32L32 32L32 25L27 25L29 31L17.9568 25.1875L0 31z"/>
<path style="fill:#f1768e; stroke:none;" d="M2 29L7 26L2 29z"/>
<path style="fill:#5e9962; stroke:none;" d="M25 27L25 29L27 29L27 27L25 27z"/>
</svg>
