<?xml version="1.0" standalone="no"?>
<!DOCTYPE svg PUBLIC "-//W3C//DTD SVG 20010904//EN"
 "http://www.w3.org/TR/2001/REC-SVG-20010904/DTD/svg10.dtd">
<svg version="1.0" xmlns="http://www.w3.org/2000/svg"
 width="483.000000pt" height="483.000000pt" viewBox="0 0 483.000000 483.000000"
 preserveAspectRatio="xMidYMid meet">
<metadata>
Created by potrace 1.11, written by Peter Selinger 2001-2013
</metadata>
<g transform="translate(0.000000,483.000000) scale(0.100000,-0.100000)"
fill="#000000" stroke="none">
<path d="M2175 4315 c-155 -29 -252 -62 -400 -135 -309 -153 -557 -418 -696
-745 -23 -56 -67 -194 -75 -240 -3 -16 -9 -48 -15 -70 -5 -22 -12 -100 -16
-172 -5 -112 -9 -133 -22 -134 -82 -3 -169 -11 -231 -19 -215 -31 -326 -124
-346 -293 -23 -194 146 -407 399 -501 37 -14 69 -26 72 -25 3 0 32 -5 65 -12
l59 -11 3 -602 3 -601 28 -56 c39 -78 108 -146 187 -183 58 -28 74 -31 155
-30 105 1 167 24 250 93 82 68 143 67 227 -5 74 -63 143 -88 248 -88 100 0
158 21 248 91 31 24 67 46 79 49 42 11 89 -6 154 -55 153 -117 341 -118 479
-2 25 21 56 44 69 51 37 19 105 7 146 -26 74 -60 136 -92 200 -104 186 -35
364 69 424 247 20 60 21 81 21 642 l0 579 68 12 c90 17 207 62 278 109 72 46
162 136 189 188 11 21 22 40 25 43 18 17 39 120 36 184 -5 145 -97 248 -256
288 -69 17 -196 33 -267 33 l-73 0 -1 93 c-1 50 -2 95 -3 100 -4 13 -18 142
-16 144 1 2 -3 15 -9 31 -6 15 -13 38 -15 50 -13 75 -58 193 -118 312 -164
323 -474 595 -813 711 -55 19 -200 55 -240 60 -27 4 -54 9 -60 12 -5 3 -79 7
-165 8 -123 1 -180 -3 -275 -21z m490 -240 c336 -71 617 -265 801 -552 64
-101 130 -260 153 -375 6 -29 14 -64 18 -78 4 -14 9 -524 10 -1133 4 -1250 10
-1157 -73 -1198 -58 -28 -98 -20 -164 32 -28 22 -75 52 -103 67 -46 24 -63 27
-152 27 -90 0 -106 -3 -159 -29 -33 -16 -73 -43 -90 -59 -72 -70 -142 -71
-222 -5 -150 125 -356 130 -490 14 -90 -79 -160 -82 -236 -12 -65 59 -141 89
-238 92 -106 4 -170 -17 -253 -81 -32 -26 -70 -50 -83 -56 -53 -19 -131 13
-159 65 -15 28 -16 133 -12 1151 4 1233 -1 1146 67 1340 131 374 448 667 831
770 51 13 117 27 148 31 31 3 58 8 60 10 11 10 276 -6 346 -21z m-1697 -1675
c1 -96 0 -180 -2 -186 -4 -10 -18 -9 -63 3 -118 30 -231 110 -273 194 -51 98
-4 140 171 155 41 4 75 7 76 8 1 1 21 1 45 1 l43 0 3 -175z m3107 165 c82 -8
127 -21 153 -45 77 -72 -80 -254 -258 -300 -25 -6 -53 -13 -62 -16 -17 -5 -18
8 -18 179 0 101 2 186 5 189 6 5 82 3 180 -7z"/>
<path d="M1740 3136 c-158 -41 -281 -170 -320 -335 -19 -80 -8 -201 26 -286
35 -89 129 -188 219 -230 85 -40 204 -46 295 -15 406 138 396 733 -15 861 -54
17 -150 19 -205 5z m187 -257 c19 -12 47 -44 63 -73 53 -92 35 -204 -44 -273
-43 -39 -72 -47 -132 -40 -62 7 -110 42 -141 105 -46 94 -20 217 59 273 59 43
134 45 195 8z"/>
<path d="M2928 3135 c-237 -62 -376 -312 -312 -559 41 -158 184 -296 334 -321
266 -45 500 164 500 445 0 162 -85 313 -220 392 -85 49 -210 67 -302 43z m196
-263 c98 -67 114 -225 34 -323 -27 -33 -83 -59 -126 -59 -183 0 -261 247 -118
373 60 53 141 57 210 9z"/>
<path d="M1913 1846 c-56 -25 -80 -105 -49 -164 18 -33 91 -96 165 -141 292
-178 680 -139 929 93 74 69 76 154 4 205 -49 34 -123 23 -163 -25 -8 -10 -43
-36 -79 -59 -128 -83 -269 -106 -417 -69 -87 22 -149 54 -221 114 -69 58 -115
70 -169 46z"/>
</g>
</svg>
